<svg height="26" viewBox="0 0 20 20" width="26" xmlns="http://www.w3.org/2000/svg"><path d="m10 4c2.4645648 0 3.8626705 1.57359992 4.0660053 3.47399034l.0621998-.00000194c1.5860485 0 2.8717949 1.23703983 2.8717949 2.7630058 0 1.525966-1.2857464 2.7630058-2.8717949 2.7630058l-1.5021994-.0007419c.0167438.0499521.0258155.1034228.0258155.1590122 0 .2761424-.2238576.5-.5.5-.2761423 0-.5-.2238576-.5-.5 0-.0555894.0090718-.1090601.0258156-.1590122l-4.2366368-.0002581-1.49596989 2.7464133c-.13215823.242464-.43584958.3318846-.67831363.1997263-.2155236-.117474-.31012393-.3704803-.23566649-.5955439l.03594013-.0827697 1.23500988-2.267826-.43020513.001c-1.58604851 0-2.87179487-1.2370398-2.87179487-2.7630058 0-1.52596597 1.28574636-2.7630058 2.87181238-2.7630058l.06218228.00000194c.20451773-1.91288117 1.60144055-3.47399034 4.06600534-3.47399034zm1.5 11c.2761424 0 .5.2238576.5.5s-.2238576.5-.5.5-.5-.2238576-.5-.5.2238576-.5.5-.5zm-2.19828138-.9398095c.2155236.1157731.31012392.3651163.23566649.5869214l-.03594014.0815714-.56233027 1.0142916c-.13215823.2389536-.43584959.3270794-.67831363.1968346-.2155236-.1157731-.31012393-.3651163-.23566649-.5869214l.03594013-.0815714.56233028-1.0142916c.13215822-.2389536.43584958-.3270794.67831363-.1968346zm4.19828138-.0601905c.2761424 0 .5.2238576.5.5s-.2238576.5-.5.5-.5-.2238576-.5-.5.2238576-.5.5-.5zm-3.5-9c-1.64943703 0-3.08710357 1.27029833-3.08710357 3.02494727 0 .27802093-.25398626.49618132-.54481231.49617227l-.5499023-.0000171c-1.00415409 0-1.81818182.77877775-1.81818182 1.73944876 0 .9606711.81402773 1.7394488 1.81818182 1.7394488h8.36363638c1.0041541 0 1.8181818-.7787777 1.8181818-1.7394488 0-.96067101-.8140277-1.73944876-1.8181641-1.73944876l-.54992.0000171c-.2908261.00000905-.5448123-.21815134-.5448123-.49617227 0-1.77715744-1.4376666-3.02494727-3.0871036-3.02494727z" fill="#212121"/></svg>